# xmcd
#
# Track frame offsets:
#	182
#	11090
#	21582
#	31387
#	42675
#	56090
#	67035
#	78437
#	89815
#	100755
#	110932
#	122012
#	134820
#	145185
#	157347
#	168070
#	180612
#	191090
#
# Disc length: 2700
#
# Revision: 1
# Processed by: cddbd v1.5.1PL0 Copyright (c) Steve Scherf et al.
# Submitted via: VisiTrax 2.9.5.180 - For more info visit www.synapsa.com
# Normalized: r0:DSETVAR1
#
DISCID=160a8a12
DTITLE=Various Artist - Stars of the Grand Ole Opry
DYEAR=1995
DGENRE=
TTITLE0=Porter Wagoner - Eat, drink and be merry
TTITLE1=Little Jimmy Dickens - May the bird of Paradise fly up your nose
TTITLE2=Jim Ed Brown - Southern loving
TTITLE3=Skeeter Davis - Gonna get along without you now
TTITLE4=Stonewall Jackson - Bj the DJ
TTITLE5=Jean Shepard - A satisfied mind
TTITLE6=Carl Smith - Loose talk
TTITLE7=Kitty Wells - Password
TTITLE8=Jack Greene - What locks the door
TTITLE9=Jan Howard - Evil on your mind
TTITLE10=Bill Carlisle - No help wanted
TTITLE11=Norma Jean - Let's go all the way
TTITLE12=George Hamilton IV - Abilene
TTITLE13=Jeanne Pruett - Satin sheets
TTITLE14=Billy Walker - Charlie's shoes
TTITLE15=Connie Smith - The hurtin's all over
TTITLE16=Faron oung - If ou ain't lovin'
TTITLE17=Del Wood - Billy Walker
EXTD=
EXTT0=
EXTT1=
EXTT2=
EXTT3=
EXTT4=
EXTT5=
EXTT6=
EXTT7=
EXTT8=
EXTT9=
EXTT10=
EXTT11=
EXTT12=
EXTT13=
EXTT14=
EXTT15=
EXTT16=
EXTT17=
PLAYORDER=
